#N canvas 543 231 1155 852 12;
#X obj 228 427 tabread4~ \$2_buf;
#X obj 121 87 inlet;
#X obj 228 536 outlet~;
#X obj 227 398 *~ \$3;
#X obj 229 461 hip~ 10;
#X obj 227 59 inlet, f 6;
#X obj 272 300 phasor~ 1;
#X obj 227 364 +~;
#X obj 121 119 sig~;
#X obj 244 338 *~;
#X obj 228 304 sig~;
#X obj 365 416 tabread4~ window_\$4;
#X obj 365 389 *~ 254;
#X obj 229 490 *~, f 20;
#X obj 414 347 vline~;
#X text 45 87 start pos;
#X text 224 32 length, f 7;
#X msg 414 319 0 0 \, 1 \$1;
#X obj 319 60 inlet;
#X text 324 37 time;
#X obj 319 120 recip 1000;
#X obj 319 90 t f f;
#X connect 0 0 4 0;
#X connect 1 0 8 0;
#X connect 3 0 0 0;
#X connect 4 0 13 0;
#X connect 5 0 10 0;
#X connect 6 0 9 1;
#X connect 7 0 3 0;
#X connect 8 0 7 0;
#X connect 9 0 7 1;
#X connect 10 0 9 0;
#X connect 11 0 13 1;
#X connect 12 0 11 0;
#X connect 13 0 2 0;
#X connect 14 0 12 0;
#X connect 17 0 14 0;
#X connect 18 0 21 0;
#X connect 20 0 6 0;
#X connect 21 0 20 0;
#X connect 21 1 17 0;
