#N canvas 417 97 1233 1103 12;
#X obj 815 70 inlet;
#X text 859 69 density;
#X obj 568 70 inlet;
#X text 614 70 spray;
#X obj 73 70 inlet;
#X text 122 70 position;
#X obj 417 74 inlet;
#X text 464 75 speed;
#X obj 577 830 clone grain \$2 \$1 44.1 \$3, f 43;
#X obj 576 860 outlet~;
#X obj 1027 102 get sflen length;
#X obj 1027 68 inlet;
#X text 1077 67 pointer to length;
#X obj 73 297 clip 0 1, f 17;
#X obj 609 147 f;
#X obj 609 199 -, f 6;
#X obj 650 147 / 2, f 4;
#X obj 73 183 f;
#X obj 282 72 inlet;
#X text 326 72 grain size;
#X obj 329 300 clip 0 1;
#X obj 650 173 t f f;
#X obj 926 70 inlet;
#X text 976 69 flux;
#X obj 329 531 f;
#X obj 329 271 f 100;
#X obj 392 233 t b f, f 18;
#X text 533 503 if density updates also update the speed at which to
play grains, f 25;
#X text 363 532 time per grain in ms;
#X obj 17 72 inlet;
#X text 16 48 play;
#X obj 17 99 s play;
#X obj 262 532 r play;
#X obj 609 228 t b f;
#X obj 641 257 s max_grain_range;
#X obj 189 265 r max_grain_range;
#X obj 382 271 r max_grain_range;
#X obj 682 196 s half_spray;
#X obj 99 265 r half_spray;
#X obj 815 114 s density;
#X obj 392 204 r density;
#X obj 1027 133 s soundfile_length;
#X obj 627 90 r soundfile_length;
#X obj 609 280 s gr_up;
#X obj 88 143 r gr_up;
#X obj 272 235 r gr_up;
#X obj 315 624 count \$2;
#X obj 368 599 r density;
#X msg 315 651 set \$1;
#X obj 577 769 r calc;
#X obj 262 624 s calc;
#X obj 577 798 calculate_params, f 43;
#X obj 926 111 s flux;
#X obj 875 771 r flux;
#X obj 449 155 s speed;
#X obj 361 356 s clipped_grain_size;
#X obj 329 328 t f f;
#X obj 815 771 r speed;
#X obj 755 748 r clipped_grain_size;
#X obj 568 114 t b b f f, f 18;
#X obj 691 146 s spray;
#X obj 696 771 r spray;
#X obj 73 330 s clipped_position;
#X obj 636 725 r clipped_position;
#X obj 315 677 s set_inst;
#X obj 262 598 t b b, f 8;
#X obj 499 798 r set_inst;
#X obj 140 830 clone grain \$2 \$1 44.1 \$3, f 43;
#X obj 139 860 outlet~;
#X obj 140 769 r calc;
#X obj 140 798 calculate_params, f 43;
#X obj 438 771 r flux;
#X obj 378 771 r speed;
#X obj 318 748 r clipped_grain_size;
#X obj 259 771 r spray;
#X obj 199 725 r clipped_position;
#X obj 62 798 r set_inst;
#X obj 262 566 metro 6.25;
#X obj 329 497 / 1, f 27;
#N canvas 0 97 450 300 check_non_zero 0;
#X obj 49 33 inlet;
#X obj 49 218 outlet;
#X obj 49 91 t f f;
#X obj 84 120 == 0;
#X obj 49 156 + 0;
#X obj 49 63 * 10000;
#X obj 49 186 / 10000;
#X connect 0 0 5 0;
#X connect 2 0 4 0;
#X connect 2 1 3 0;
#X connect 3 0 4 1;
#X connect 4 0 6 0;
#X connect 5 0 2 0;
#X connect 6 0 1 0;
#X restore 417 101 pd check_non_zero;
#X obj 417 127 t f f;
#X obj 520 146 s spray_act;
#X obj 146 144 r spray_act;
#X obj 401 154 recip;
#X obj 401 181 s recip_speed;
#X obj 350 380 r recip_speed;
#X obj 329 469 *, f 8;
#X obj 350 405 t b f;
#X obj 329 435 f;
#X connect 0 0 39 0;
#X connect 2 0 59 0;
#X connect 4 0 17 0;
#X connect 6 0 79 0;
#X connect 8 0 9 0;
#X connect 10 0 41 0;
#X connect 11 0 10 0;
#X connect 13 0 62 0;
#X connect 14 0 15 0;
#X connect 15 0 33 0;
#X connect 16 0 21 0;
#X connect 17 0 13 0;
#X connect 18 0 25 0;
#X connect 20 0 56 0;
#X connect 21 0 15 1;
#X connect 21 1 37 0;
#X connect 22 0 52 0;
#X connect 24 0 77 1;
#X connect 25 0 20 0;
#X connect 26 0 25 0;
#X connect 26 1 78 1;
#X connect 29 0 31 0;
#X connect 32 0 77 0;
#X connect 33 0 43 0;
#X connect 33 1 34 0;
#X connect 35 0 13 2;
#X connect 36 0 20 2;
#X connect 38 0 13 1;
#X connect 40 0 26 0;
#X connect 42 0 14 1;
#X connect 44 0 17 0;
#X connect 45 0 25 0;
#X connect 46 0 48 0;
#X connect 47 0 46 1;
#X connect 48 0 64 0;
#X connect 49 0 51 0;
#X connect 51 0 8 0;
#X connect 51 1 8 1;
#X connect 51 2 8 2;
#X connect 53 0 51 5;
#X connect 56 0 88 0;
#X connect 56 1 55 0;
#X connect 57 0 51 4;
#X connect 58 0 51 3;
#X connect 59 0 81 0;
#X connect 59 1 14 0;
#X connect 59 2 16 0;
#X connect 59 3 60 0;
#X connect 61 0 51 2;
#X connect 63 0 51 1;
#X connect 65 0 50 0;
#X connect 65 1 46 0;
#X connect 66 0 8 0;
#X connect 67 0 68 0;
#X connect 69 0 70 0;
#X connect 70 0 67 0;
#X connect 70 1 67 1;
#X connect 70 2 67 2;
#X connect 71 0 70 5;
#X connect 72 0 70 4;
#X connect 73 0 70 3;
#X connect 74 0 70 2;
#X connect 75 0 70 1;
#X connect 76 0 67 0;
#X connect 77 0 65 0;
#X connect 78 0 24 0;
#X connect 79 0 80 0;
#X connect 80 0 83 0;
#X connect 80 1 54 0;
#X connect 82 0 17 0;
#X connect 83 0 84 0;
#X connect 85 0 87 0;
#X connect 86 0 78 0;
#X connect 87 0 88 0;
#X connect 87 1 86 1;
#X connect 88 0 86 0;
