#N struct sflen float length;
#N canvas 0 38 1800 1103 12;
#X obj 127 142 soundfiler;
#N canvas 0 50 450 250 (subpatch) 0;
#X array ants_buf 2.12827e+06 float 2;
#X coords 0 1 2.12827e+06 -1 200 140 1 0 0;
#X restore 1424 53 graph;
#X obj 127 175 - 2;
#N canvas 1287 384 450 300 sflen 0;
#X obj 59 98 drawnumber length;
#X obj 64 54 struct sflen float length;
#X restore 1538 227 pd sflen;
#N canvas 1148 141 450 300 ants_len 0;
#X scalar sflen 2.12827e+06 \;;
#X restore 25 9 pd ants_len;
#X obj 606 186 pointer;
#X obj 476 212 append sflen length;
#X msg 606 157 traverse pd-ants_len \, bang;
#X obj 126 31 loadbang;
#X msg 479 181 0;
#X msg 591 97 clear;
#X obj 591 122 s pd-ants_len;
#X obj 127 241 set sflen length;
#X obj 267 708 *~ 0.1;
#N canvas 0 50 450 250 (subpatch) 0;
#X array array1 100 float 3;
#A 0 0.00156994 0.00156994 0.00156994 0.00156994 0.00156994 0.00156994 0.00156994 0.00156994 0.00156994 0.00156994 0.00156994 0.00156994 0.00156994 0.00156994 0.00156994 0.00156994 0.00156994 0.00156994 0.00156994 0.00156994 0.00156994 0.00156994 0.00156994 0.00156994 0.00156994 0.00156994 0.00156994 0.00156994 0.00156994 0.00156994 0.00156994 0.00156994 0.00156994 0.00156994 0.00156994 0.00156994 0.00156994 0.00156994 0.00156994 0.00156994 0.00156994 0.00156994 0.00156994 0.00156994 0.00156994 0.00156994 0.00156994 0.00156994 0.00156994 0.00156994 0.00156994 0.00156994 0.00156994 0.00156994 0.00156994 0.00156994 -0.00347566 -0.0028903 -0.00253009 -0.00285106 -0.00197449 -0.00205973 -0.00226127 -0.00193529 -0.00175328 -0.00142947 -0.00081514 -0.00123262 -0.000982881 -0.000860245 -0.000769182 -0.000994597 -0.000433253 -0.000895848 -0.000337254 -0.000308877 -0.000525001 3.65469e-05 6.9154e-06 -0.000407192 -0.000721438 -0.000307371 -0.000241119 -0.000717426 -0.0002085 -3.90787e-05 0.000187412 -9.57994e-05 -0.000501473 -0.00012823 -3.02927e-05 -0.000175464 -0.000578748 -7.82028e-05 -9.31179e-05 -0.000367423 8.72392e-05 9.60808e-05 4.20184e-05 0.00156994;
#X coords 0 1 100 -1 200 140 1;
#X restore 1262 744 graph;
#X obj 1261 1016 array set array1;
#X obj 659 325 samplerate~;
#X obj 660 299 r pd-dsp-started;
#X obj 659 353 / 1000;
#X obj 659 381 s ms_sr;
#X obj 155 604 nbx 5 14 0 100 0 0 empty empty empty 0 -8 0 10 #fcfcfc #000000 #000000 0 256;
#X obj 155 629 / 100;
#X obj 155 662 clip 0 1;
#X obj 1430 250 array define window_hanning 256;
#X obj 1430 273 array define window_tri 256;
#N canvas 747 191 747 695 gen_windows 0;
#X obj 90 30 loadbang;
#X obj 90 156 count, f 8;
#X msg 90 65 256;
#X obj 90 126 until;
#X obj 90 97 t f f, f 8;
#X obj 90 247 array set window_hanning;
#X obj 270 247 array set window_tri, f 26;
#N canvas 1220 469 534 469 tri 0;
#X obj 40 185 spigot 1;
#X obj 105 185 spigot 0;
#X obj 158 156 -, f 6;
#X obj 135 61 expr $i1 < 128;
#X msg 158 131 1;
#X obj 135 91 t f b f;
#X obj 40 151 / 128;
#X obj 39 13 inlet;
#X obj 40 338 outlet;
#X obj 105 292 -, f 6;
#X msg 105 267 1;
#X obj 105 240 t b f, f 6;
#X obj 105 212 - 1;
#X connect 0 0 8 0;
#X connect 1 0 12 0;
#X connect 2 0 1 1;
#X connect 3 0 5 0;
#X connect 4 0 2 0;
#X connect 5 0 0 1;
#X connect 5 1 4 0;
#X connect 5 2 2 1;
#X connect 6 0 0 0;
#X connect 6 0 1 0;
#X connect 7 0 3 0;
#X connect 7 0 6 0;
#X connect 9 0 8 0;
#X connect 10 0 9 0;
#X connect 11 0 10 0;
#X connect 11 1 9 1;
#X connect 12 0 11 0;
#X restore 270 218 pd tri;
#N canvas 0 97 450 300 hann 0;
#X obj 91 75 inlet;
#X obj 91 217 outlet, f 7;
#X obj 91 161 sin;
#X obj 91 128 / 256;
#X obj 91 189 *;
#X obj 91 105 * 3.14159;
#X connect 0 0 5 0;
#X connect 2 0 4 1;
#X connect 2 0 4 0;
#X connect 3 0 2 0;
#X connect 4 0 1 0;
#X connect 5 0 3 0;
#X restore 90 219 pd hann;
#X obj 90 184 t f f f f, f 39;
#X connect 0 0 2 0;
#X connect 1 0 9 0;
#X connect 2 0 4 0;
#X connect 3 0 1 0;
#X connect 4 0 3 0;
#X connect 4 1 1 1;
#X connect 7 0 6 0;
#X connect 8 0 5 0;
#X connect 9 0 8 0;
#X connect 9 1 5 1;
#X connect 9 2 7 0;
#X connect 9 3 6 1;
#X restore 1430 227 pd gen_windows;
#X obj 266 629 granulator ants 16 hanning;
#X obj 235 194 pointer;
#X obj 660 535 r ants_len_p;
#X obj 126 62 t b b b b b, f 67;
#X obj 255 587 tgl 15 0 empty empty empty 17 7 0 10 #fcfcfc #000000 #000000 0 1;
#X floatatom 291 551 5 0 0 0 - - - 0;
#X floatatom 330 554 5 0 0 0 - - - 0;
#X floatatom 371 556 5 0 0 0 - - - 0;
#X floatatom 414 551 5 0 0 0 - - - 0;
#X floatatom 463 555 5 0 0 0 - - - 0;
#X floatatom 504 554 5 0 0 0 - - - 0;
#X obj 566 555 pointer;
#X obj 251 232 s ants_len_p;
#X obj 95 267 s trig_get_len;
#X obj 676 510 r trig_get_len;
#X obj 290 444 bng 15 250 50 0 empty empty empty 17 7 0 10 #fcfcfc #000000 #000000;
#X floatatom 1259 913 5 0 0 0 - - - 0;
#X obj 205 27 bng 15 250 50 0 empty empty empty 17 7 0 10 #fcfcfc #000000 #000000;
#X obj 446 709 *~ 0.1;
#X obj 1145 384 unpack 0 0 0 0, f 27;
#X obj 1261 934 plot_driver;
#X obj 1009 74 netreceive -u -b 5555;
#X obj 1009 105 fudiparse;
#X obj 1009 133 unpack s 0 0 0 0 0;
#X obj 1033 177 / 5;
#X obj 1027 260 osc~;
#X obj 348 235 print;
#X obj 95 207 t b f;
#X msg 236 145 traverse pd-ants_len \, next;
#X obj 268 799 *~ 2;
#X obj 446 801 *~ 2;
#X obj 162 748 nbx 5 14 0 5 0 0 empty empty empty 0 -8 0 10 #fcfcfc #000000 #000000 0 256;
#N canvas 464 461 915 563 microtones 0;
#X obj 250 41 inlet;
#X obj 365 491 outlet;
#X obj 301 102 % 12;
#X obj 301 127 select 0 1 2 3 4 5 6 7 8 9 10 11, f 64;
#X obj 301 156 1;
#X obj 338 158 rat 256 243;
#X obj 375 184 rat 9 8;
#X obj 412 215 rat 32 27;
#X obj 449 158 rat 81 64;
#X obj 487 183 rat 4 3;
#X obj 523 217 rat 1024 729;
#X obj 560 158 rat 3 2;
#X obj 597 183 rat 128 81;
#X obj 635 217 rat 27 16;
#X obj 671 158 rat 16 9;
#X obj 709 186 rat 243 128;
#X obj 423 47 260.741;
#X obj 130 148 t f f, f 6;
#X obj 130 258 spigot;
#X obj 218 229 spigot;
#X obj 130 286 !- 5;
#X obj 130 313 t b b f;
#X obj 153 367 pow, f 5;
#X obj 423 73 v \$0-mid_c;
#X obj 423 21 loadbang;
#X obj 72 367 v \$0-mid_c;
#X obj 72 398 /, f 12;
#X obj 218 255 - 5;
#X obj 218 287 t b b f, f 16;
#X obj 299 367 pow, f 5;
#X obj 153 340 2;
#X obj 299 341 2;
#X obj 169 185 expr $i1 < 5 \; $i1 >= 5;
#X obj 218 398 *, f 12;
#X obj 218 367 v \$0-mid_c;
#X obj 365 462 *;
#X floatatom 144 23 5 0 0 0 - - - 0;
#X obj 130 103 expr $i1 / 12;
#X obj 250 71 t f f;
#X connect 0 0 38 0;
#X connect 2 0 3 0;
#X connect 3 0 4 0;
#X connect 3 1 5 0;
#X connect 3 2 6 0;
#X connect 3 3 7 0;
#X connect 3 4 8 0;
#X connect 3 5 9 0;
#X connect 3 6 10 0;
#X connect 3 7 11 0;
#X connect 3 8 12 0;
#X connect 3 9 13 0;
#X connect 3 10 14 0;
#X connect 3 11 15 0;
#X connect 4 0 35 1;
#X connect 5 0 35 1;
#X connect 6 0 35 1;
#X connect 7 0 35 1;
#X connect 8 0 35 1;
#X connect 9 0 35 1;
#X connect 10 0 35 1;
#X connect 11 0 35 1;
#X connect 12 0 35 1;
#X connect 13 0 35 1;
#X connect 14 0 35 1;
#X connect 15 0 35 1;
#X connect 16 0 23 0;
#X connect 17 0 19 0;
#X connect 17 0 18 0;
#X connect 17 1 32 0;
#X connect 18 0 20 0;
#X connect 19 0 27 0;
#X connect 20 0 21 0;
#X connect 21 0 25 0;
#X connect 21 1 30 0;
#X connect 21 2 22 1;
#X connect 22 0 26 1;
#X connect 24 0 16 0;
#X connect 25 0 26 0;
#X connect 26 0 35 0;
#X connect 27 0 28 0;
#X connect 28 0 34 0;
#X connect 28 1 31 0;
#X connect 28 2 29 1;
#X connect 29 0 33 1;
#X connect 30 0 22 0;
#X connect 31 0 29 0;
#X connect 32 0 18 1;
#X connect 32 1 19 1;
#X connect 33 0 35 0;
#X connect 34 0 33 0;
#X connect 35 0 1 0;
#X connect 36 0 38 0;
#X connect 37 0 17 0;
#X connect 38 0 37 0;
#X connect 38 1 2 0;
#X restore 1072 435 pd microtones;
#N canvas 454 421 915 596 microtones 0;
#X obj 250 41 inlet;
#X obj 365 491 outlet;
#X obj 301 102 % 12;
#X obj 301 127 select 0 1 2 3 4 5 6 7 8 9 10 11, f 64;
#X obj 301 156 1;
#X obj 338 158 rat 256 243;
#X obj 375 184 rat 9 8;
#X obj 412 215 rat 32 27;
#X obj 449 158 rat 81 64;
#X obj 487 183 rat 4 3;
#X obj 523 217 rat 1024 729;
#X obj 560 158 rat 3 2;
#X obj 597 183 rat 128 81;
#X obj 635 217 rat 27 16;
#X obj 671 158 rat 16 9;
#X obj 709 186 rat 243 128;
#X obj 423 47 260.741;
#X obj 130 148 t f f, f 6;
#X obj 130 258 spigot;
#X obj 218 229 spigot;
#X obj 130 286 !- 5;
#X obj 130 313 t b b f;
#X obj 153 367 pow, f 5;
#X obj 423 73 v \$0-mid_c;
#X obj 423 21 loadbang;
#X obj 72 367 v \$0-mid_c;
#X obj 72 398 /, f 12;
#X obj 218 255 - 5;
#X obj 218 287 t b b f, f 16;
#X obj 299 367 pow, f 5;
#X obj 153 340 2;
#X obj 299 341 2;
#X obj 169 185 expr $i1 < 5 \; $i1 >= 5;
#X obj 218 398 *, f 12;
#X obj 218 367 v \$0-mid_c;
#X obj 365 462 *;
#X floatatom 144 23 5 0 0 0 - - - 0;
#X obj 250 71 t i f;
#X obj 130 103 expr $i1 / 12;
#X connect 0 0 37 0;
#X connect 2 0 3 0;
#X connect 3 0 4 0;
#X connect 3 1 5 0;
#X connect 3 2 6 0;
#X connect 3 3 7 0;
#X connect 3 4 8 0;
#X connect 3 5 9 0;
#X connect 3 6 10 0;
#X connect 3 7 11 0;
#X connect 3 8 12 0;
#X connect 3 9 13 0;
#X connect 3 10 14 0;
#X connect 3 11 15 0;
#X connect 4 0 35 1;
#X connect 5 0 35 1;
#X connect 6 0 35 1;
#X connect 7 0 35 1;
#X connect 8 0 35 1;
#X connect 9 0 35 1;
#X connect 10 0 35 1;
#X connect 11 0 35 1;
#X connect 12 0 35 1;
#X connect 13 0 35 1;
#X connect 14 0 35 1;
#X connect 15 0 35 1;
#X connect 16 0 23 0;
#X connect 17 0 19 0;
#X connect 17 0 18 0;
#X connect 17 1 32 0;
#X connect 18 0 20 0;
#X connect 19 0 27 0;
#X connect 20 0 21 0;
#X connect 21 0 25 0;
#X connect 21 1 30 0;
#X connect 21 2 22 1;
#X connect 22 0 26 1;
#X connect 24 0 16 0;
#X connect 25 0 26 0;
#X connect 26 0 35 0;
#X connect 27 0 28 0;
#X connect 28 0 34 0;
#X connect 28 1 31 0;
#X connect 28 2 29 1;
#X connect 29 0 33 1;
#X connect 30 0 22 0;
#X connect 31 0 29 0;
#X connect 32 0 18 1;
#X connect 32 1 19 1;
#X connect 33 0 35 0;
#X connect 34 0 33 0;
#X connect 35 0 1 0;
#X connect 36 0 37 0;
#X connect 37 0 38 0;
#X connect 37 1 2 0;
#X connect 38 0 17 0;
#X restore 1176 434 pd microtones;
#N canvas 444 445 915 563 microtones 0;
#X obj 250 41 inlet;
#X obj 365 491 outlet;
#X obj 301 102 % 12;
#X obj 301 127 select 0 1 2 3 4 5 6 7 8 9 10 11, f 64;
#X obj 301 156 1;
#X obj 338 158 rat 256 243;
#X obj 375 184 rat 9 8;
#X obj 412 215 rat 32 27;
#X obj 449 158 rat 81 64;
#X obj 487 183 rat 4 3;
#X obj 523 217 rat 1024 729;
#X obj 560 158 rat 3 2;
#X obj 597 183 rat 128 81;
#X obj 635 217 rat 27 16;
#X obj 671 158 rat 16 9;
#X obj 709 186 rat 243 128;
#X obj 423 47 260.741;
#X obj 130 148 t f f, f 6;
#X obj 130 258 spigot;
#X obj 218 229 spigot;
#X obj 130 286 !- 5;
#X obj 130 313 t b b f;
#X obj 153 367 pow, f 5;
#X obj 423 73 v \$0-mid_c;
#X obj 423 21 loadbang;
#X obj 72 367 v \$0-mid_c;
#X obj 72 398 /, f 12;
#X obj 218 255 - 5;
#X obj 218 287 t b b f, f 16;
#X obj 299 367 pow, f 5;
#X obj 153 340 2;
#X obj 299 341 2;
#X obj 169 185 expr $i1 < 5 \; $i1 >= 5;
#X obj 218 398 *, f 12;
#X obj 218 367 v \$0-mid_c;
#X obj 365 462 *;
#X floatatom 144 23 5 0 0 0 - - - 0;
#X obj 250 71 t i f;
#X obj 130 103 expr $i1 / 12;
#X connect 0 0 37 0;
#X connect 2 0 3 0;
#X connect 3 0 4 0;
#X connect 3 1 5 0;
#X connect 3 2 6 0;
#X connect 3 3 7 0;
#X connect 3 4 8 0;
#X connect 3 5 9 0;
#X connect 3 6 10 0;
#X connect 3 7 11 0;
#X connect 3 8 12 0;
#X connect 3 9 13 0;
#X connect 3 10 14 0;
#X connect 3 11 15 0;
#X connect 4 0 35 1;
#X connect 5 0 35 1;
#X connect 6 0 35 1;
#X connect 7 0 35 1;
#X connect 8 0 35 1;
#X connect 9 0 35 1;
#X connect 10 0 35 1;
#X connect 11 0 35 1;
#X connect 12 0 35 1;
#X connect 13 0 35 1;
#X connect 14 0 35 1;
#X connect 15 0 35 1;
#X connect 16 0 23 0;
#X connect 17 0 19 0;
#X connect 17 0 18 0;
#X connect 17 1 32 0;
#X connect 18 0 20 0;
#X connect 19 0 27 0;
#X connect 20 0 21 0;
#X connect 21 0 25 0;
#X connect 21 1 30 0;
#X connect 21 2 22 1;
#X connect 22 0 26 1;
#X connect 24 0 16 0;
#X connect 25 0 26 0;
#X connect 26 0 35 0;
#X connect 27 0 28 0;
#X connect 28 0 34 0;
#X connect 28 1 31 0;
#X connect 28 2 29 1;
#X connect 29 0 33 1;
#X connect 30 0 22 0;
#X connect 31 0 29 0;
#X connect 32 0 18 1;
#X connect 32 1 19 1;
#X connect 33 0 35 0;
#X connect 34 0 33 0;
#X connect 35 0 1 0;
#X connect 36 0 37 0;
#X connect 37 0 38 0;
#X connect 37 1 2 0;
#X connect 38 0 17 0;
#X restore 1279 435 pd microtones;
#N canvas 444 445 915 563 microtones 0;
#X obj 250 41 inlet;
#X obj 365 491 outlet;
#X obj 301 102 % 12;
#X obj 301 127 select 0 1 2 3 4 5 6 7 8 9 10 11, f 64;
#X obj 301 156 1;
#X obj 338 158 rat 256 243;
#X obj 375 184 rat 9 8;
#X obj 412 215 rat 32 27;
#X obj 449 158 rat 81 64;
#X obj 487 183 rat 4 3;
#X obj 523 217 rat 1024 729;
#X obj 560 158 rat 3 2;
#X obj 597 183 rat 128 81;
#X obj 635 217 rat 27 16;
#X obj 671 158 rat 16 9;
#X obj 709 186 rat 243 128;
#X obj 423 47 260.741;
#X obj 130 148 t f f, f 6;
#X obj 130 258 spigot;
#X obj 218 229 spigot;
#X obj 130 286 !- 5;
#X obj 130 313 t b b f;
#X obj 153 367 pow, f 5;
#X obj 423 73 v \$0-mid_c;
#X obj 423 21 loadbang;
#X obj 72 367 v \$0-mid_c;
#X obj 72 398 /, f 12;
#X obj 218 255 - 5;
#X obj 218 287 t b b f, f 16;
#X obj 299 367 pow, f 5;
#X obj 153 340 2;
#X obj 299 341 2;
#X obj 169 185 expr $i1 < 5 \; $i1 >= 5;
#X obj 218 398 *, f 12;
#X obj 218 367 v \$0-mid_c;
#X obj 365 462 *;
#X floatatom 144 23 5 0 0 0 - - - 0;
#X obj 250 71 t i f;
#X obj 130 103 expr $i1 / 12;
#X connect 0 0 37 0;
#X connect 2 0 3 0;
#X connect 3 0 4 0;
#X connect 3 1 5 0;
#X connect 3 2 6 0;
#X connect 3 3 7 0;
#X connect 3 4 8 0;
#X connect 3 5 9 0;
#X connect 3 6 10 0;
#X connect 3 7 11 0;
#X connect 3 8 12 0;
#X connect 3 9 13 0;
#X connect 3 10 14 0;
#X connect 3 11 15 0;
#X connect 4 0 35 1;
#X connect 5 0 35 1;
#X connect 6 0 35 1;
#X connect 7 0 35 1;
#X connect 8 0 35 1;
#X connect 9 0 35 1;
#X connect 10 0 35 1;
#X connect 11 0 35 1;
#X connect 12 0 35 1;
#X connect 13 0 35 1;
#X connect 14 0 35 1;
#X connect 15 0 35 1;
#X connect 16 0 23 0;
#X connect 17 0 19 0;
#X connect 17 0 18 0;
#X connect 17 1 32 0;
#X connect 18 0 20 0;
#X connect 19 0 27 0;
#X connect 20 0 21 0;
#X connect 21 0 25 0;
#X connect 21 1 30 0;
#X connect 21 2 22 1;
#X connect 22 0 26 1;
#X connect 24 0 16 0;
#X connect 25 0 26 0;
#X connect 26 0 35 0;
#X connect 27 0 28 0;
#X connect 28 0 34 0;
#X connect 28 1 31 0;
#X connect 28 2 29 1;
#X connect 29 0 33 1;
#X connect 30 0 22 0;
#X connect 31 0 29 0;
#X connect 32 0 18 1;
#X connect 32 1 19 1;
#X connect 33 0 35 0;
#X connect 34 0 33 0;
#X connect 35 0 1 0;
#X connect 36 0 37 0;
#X connect 37 0 38 0;
#X connect 37 1 2 0;
#X connect 38 0 17 0;
#X restore 1379 433 pd microtones;
#X msg 127 112 read -resize ../audio/crafts.wav ants_buf;
#X msg 288 514 100;
#X msg 331 516 500;
#X msg 372 516 1;
#X msg 412 517 200;
#X msg 460 517 1;
#X msg 501 520 2;
#X obj 279 399 loadbang;
#X obj 742 937 dac~ 1 2, f 26;
#N canvas 179 217 1164 606 reverb 0;
#X obj 133 74 inlet~;
#X obj 183 74 inlet~;
#X obj 474 465 rev1~;
#X obj 590 466 rev1~;
#X obj 233 73 inlet;
#X obj 284 75 inlet;
#X obj 851 70 inlet;
#X obj 850 103 s \$0-verb_time;
#X obj 712 427 r \$0-verb_time;
#X obj 971 99 s \$0-crosstalk;
#X obj 971 70 inlet;
#X obj 712 347 r \$0-crosstalk;
#X obj 712 372 clip 0 1;
#X obj 712 397 * 0.707;
#X obj 132 158 throw~ \$0-dry-L;
#X obj 182 186 throw~ \$0-dry-R;
#X obj 233 136 throw~ \$0-lp-L;
#X obj 283 164 throw~ \$0-lp-R;
#X obj 361 465 catch~ \$0-dry-L;
#X obj 640 465 catch~ \$0-dry-R;
#X obj 474 395 catch~ \$0-lp-L;
#X obj 590 395 catch~ \$0-lp-R;
#N canvas 208 246 450 300 crosstalk 0;
#X obj 69 95 inlet~;
#X obj 133 94 inlet~;
#X obj 188 40 inlet;
#X obj 188 94 !- 1;
#X obj 69 143 *~;
#X obj 133 143 *~, f 16;
#X obj 188 66 t f f, f 8;
#X obj 69 208 outlet~;
#X obj 69 176 +~;
#X connect 0 0 4 0;
#X connect 1 0 5 0;
#X connect 2 0 6 0;
#X connect 3 0 4 1;
#X connect 4 0 8 0;
#X connect 5 0 8 1;
#X connect 6 0 3 0;
#X connect 6 1 5 1;
#X connect 8 0 7 0;
#X restore 474 430 pd crosstalk;
#N canvas 208 246 450 300 crosstalk 0;
#X obj 69 95 inlet~;
#X obj 133 94 inlet~;
#X obj 188 40 inlet;
#X obj 188 94 !- 1;
#X obj 69 143 *~;
#X obj 133 143 *~, f 16;
#X obj 188 66 t f f, f 8;
#X obj 69 208 outlet~;
#X obj 69 176 +~;
#X connect 0 0 4 0;
#X connect 1 0 5 0;
#X connect 2 0 6 0;
#X connect 3 0 4 1;
#X connect 4 0 8 0;
#X connect 5 0 8 1;
#X connect 6 0 3 0;
#X connect 6 1 5 1;
#X connect 8 0 7 0;
#X restore 590 430 pd crosstalk;
#X obj 456 498 +~;
#X obj 590 495 +~;
#X obj 456 529 outlet~;
#X obj 590 528 outlet~;
#N canvas 266 304 645 533 verb_prep 0;
#X obj 171 83 inlet~;
#X obj 292 82 inlet~;
#X obj 347 65 inlet;
#X obj 399 11 inlet;
#X obj 95 240 outlet~;
#X obj 213 242 outlet~;
#X obj 306 248 outlet~;
#X obj 365 249 outlet~;
#X obj 169 128 vcf~ 0.7;
#X obj 289 127 vcf~ 0.7;
#X obj 347 93 sig~;
#X obj 97 214 *~;
#X obj 400 69 t f f;
#X obj 400 40 clip 0 1;
#X obj 213 212 *~;
#X obj 384 126 t f f;
#X obj 398 99 !- 1;
#X obj 436 99 s \$0-ch1-wet;
#X obj 169 156 *~;
#X obj 289 156 *~;
#X obj 54 112 r \$0-ch1-wet;
#X connect 0 0 8 0;
#X connect 0 0 11 0;
#X connect 1 0 9 0;
#X connect 1 0 14 0;
#X connect 2 0 10 0;
#X connect 3 0 13 0;
#X connect 8 0 18 0;
#X connect 9 0 19 0;
#X connect 10 0 9 1;
#X connect 10 0 8 1;
#X connect 11 0 4 0;
#X connect 12 0 16 0;
#X connect 12 1 17 0;
#X connect 13 0 12 0;
#X connect 14 0 5 0;
#X connect 15 0 11 1;
#X connect 15 1 14 1;
#X connect 16 0 15 0;
#X connect 18 0 6 0;
#X connect 19 0 7 0;
#X connect 20 0 18 1;
#X connect 20 0 19 1;
#X restore 133 102 pd verb_prep;
#X f 22;
#X obj 233 51 d 349.5;
#X obj 294 49 d 0.3;
#X obj 896 70 d 81.37;
#X obj 1015 70 d 0.31;
#X connect 0 0 28 0;
#X connect 1 0 28 1;
#X connect 2 0 24 1;
#X connect 3 0 25 0;
#X connect 4 0 28 2;
#X connect 5 0 28 3;
#X connect 6 0 7 0;
#X connect 8 0 3 1;
#X connect 8 0 2 1;
#X connect 10 0 9 0;
#X connect 11 0 12 0;
#X connect 12 0 13 0;
#X connect 13 0 22 2;
#X connect 13 0 23 2;
#X connect 18 0 24 0;
#X connect 19 0 25 1;
#X connect 20 0 22 0;
#X connect 20 0 23 1;
#X connect 21 0 22 1;
#X connect 21 0 23 0;
#X connect 22 0 2 0;
#X connect 23 0 3 0;
#X connect 24 0 26 0;
#X connect 25 0 27 0;
#X connect 28 0 14 0;
#X connect 28 1 15 0;
#X connect 28 2 16 0;
#X connect 28 3 17 0;
#X connect 29 0 28 2;
#X connect 30 0 28 3;
#X connect 31 0 7 0;
#X connect 32 0 9 0;
#X restore 310 893 pd reverb;
#X floatatom 399 856 5 0 0 0 - - - 0;
#X text 308 930 sig1 \, sig2 \, lp1 \, drywet1 \, ... \, verbtime \, crosstalk;
#X floatatom 452 857 5 0 1 0 - - - 0;
#X floatatom 499 857 5 0 0 0 - - - 0;
#X floatatom 541 858 5 0 1 0 - - - 0;
#X obj 1062 515 *~;
#X obj 1192 513 *~;
#X obj 1296 511 *~;
#X obj 1416 513 *~;
#X obj 1047 599 *~ 0.1;
#X obj 1173 603 *~ 0.1;
#X obj 1272 609 *~ 0.1;
#X obj 1400 615 *~ 0.1;
#X obj 1047 644 +~;
#X obj 1274 653 +~;
#X obj 1046 689 +~;
#X obj 1071 407 + 12;
#X obj 1175 412 + 12;
#X obj 1267 413 + 12;
#X obj 1378 405 + 12;
#X obj 1064 363 * 12;
#X floatatom 1028 328 5 0 0 0 - - - 0;
#X obj 1190 477 osc~;
#X obj 1296 472 osc~;
#X obj 1415 476 osc~;
#X floatatom 1566 475 5 0 1 0 - - - 0;
#X obj 1072 469 osc~;
#X obj 1174 554 softclip;
#X obj 1277 554 softclip;
#X obj 1397 554 softclip;
#X obj 1049 552 softclip;
#X msg 1145 352 36 40 43 48;
#X floatatom 1511 456 5 0 1 0 - - - 0;
#X obj 1260 968 snapshot~ 0;
#X obj 877 406 spiketrain 1 0;
#X obj 267 844 softclip;
#X floatatom 578 680 5 0 1 0 - - - 0;
#X floatatom 618 680 5 0 1 0 - - - 0;
#X obj 374 834 softclip;
#X connect 0 0 2 0;
#X connect 2 0 53 0;
#X connect 5 0 6 1;
#X connect 7 0 5 0;
#X connect 8 0 29 0;
#X connect 9 0 6 0;
#X connect 10 0 11 0;
#X connect 13 0 55 0;
#X connect 16 0 18 0;
#X connect 17 0 16 0;
#X connect 18 0 19 0;
#X connect 20 0 21 0;
#X connect 21 0 22 0;
#X connect 22 0 44 1;
#X connect 22 0 13 1;
#X connect 26 0 13 0;
#X connect 26 1 44 0;
#X connect 27 0 12 1;
#X connect 27 0 38 0;
#X connect 27 0 52 0;
#X connect 28 0 37 1;
#X connect 29 0 62 0;
#X connect 29 1 54 0;
#X connect 29 2 9 0;
#X connect 29 3 7 0;
#X connect 29 4 10 0;
#X connect 30 0 26 0;
#X connect 31 0 26 1;
#X connect 32 0 26 2;
#X connect 33 0 26 3;
#X connect 34 0 26 4;
#X connect 35 0 26 5;
#X connect 36 0 26 6;
#X connect 37 0 26 7;
#X connect 40 0 37 0;
#X connect 41 0 37 0;
#X connect 41 0 63 0;
#X connect 41 0 64 0;
#X connect 41 0 65 0;
#X connect 41 0 66 0;
#X connect 41 0 67 0;
#X connect 41 0 68 0;
#X connect 42 0 46 0;
#X connect 43 0 29 0;
#X connect 44 0 56 0;
#X connect 45 0 88 0;
#X connect 45 1 89 0;
#X connect 45 2 90 0;
#X connect 45 3 91 0;
#X connect 46 0 105 0;
#X connect 46 1 15 1;
#X connect 47 0 48 0;
#X connect 48 0 49 0;
#X connect 49 1 50 0;
#X connect 50 0 106 0;
#X connect 53 0 39 0;
#X connect 53 1 12 0;
#X connect 54 0 27 0;
#X connect 55 0 107 0;
#X connect 56 0 110 0;
#X connect 57 0 55 1;
#X connect 57 0 56 1;
#X connect 58 0 98 0;
#X connect 59 0 94 0;
#X connect 60 0 95 0;
#X connect 61 0 96 0;
#X connect 62 0 0 0;
#X connect 63 0 31 0;
#X connect 64 0 32 0;
#X connect 65 0 33 0;
#X connect 66 0 34 0;
#X connect 67 0 35 0;
#X connect 68 0 36 0;
#X connect 69 0 41 0;
#X connect 71 0 70 0;
#X connect 71 1 70 1;
#X connect 72 0 71 2;
#X connect 74 0 71 3;
#X connect 75 0 71 4;
#X connect 76 0 71 5;
#X connect 77 0 102 0;
#X connect 78 0 99 0;
#X connect 79 0 100 0;
#X connect 80 0 101 0;
#X connect 81 0 85 0;
#X connect 82 0 85 1;
#X connect 83 0 86 0;
#X connect 84 0 86 1;
#X connect 85 0 87 0;
#X connect 86 0 87 1;
#X connect 87 0 70 0;
#X connect 87 0 70 1;
#X connect 88 0 58 0;
#X connect 89 0 59 0;
#X connect 90 0 60 0;
#X connect 91 0 61 0;
#X connect 92 0 88 1;
#X connect 92 0 89 1;
#X connect 92 0 90 1;
#X connect 92 0 91 1;
#X connect 93 0 92 0;
#X connect 94 0 78 0;
#X connect 95 0 79 0;
#X connect 96 0 80 0;
#X connect 97 0 102 2;
#X connect 97 0 100 2;
#X connect 97 0 101 2;
#X connect 97 0 99 2;
#X connect 98 0 77 0;
#X connect 99 0 82 0;
#X connect 100 0 83 0;
#X connect 101 0 84 0;
#X connect 102 0 81 0;
#X connect 102 0 105 0;
#X connect 103 0 45 0;
#X connect 104 0 102 1;
#X connect 104 0 100 1;
#X connect 104 0 101 1;
#X connect 104 0 99 1;
#X connect 105 0 15 0;
#X connect 106 0 77 1;
#X connect 106 0 79 1;
#X connect 106 0 80 1;
#X connect 106 0 78 1;
#X connect 107 0 71 0;
#X connect 107 0 105 0;
#X connect 108 0 107 1;
#X connect 108 0 110 1;
#X connect 109 0 107 2;
#X connect 109 0 110 2;
#X connect 110 0 71 1;
