#N struct sflen float length;
#N canvas 0 97 1920 1103 12;
#X obj 127 142 soundfiler;
#N canvas 0 50 450 250 (subpatch) 0;
#X array ants_buf 1.15791e+07 float 2;
#X coords 0 1 1.15791e+07 -1 200 140 1 0 0;
#X restore 1424 53 graph;
#X obj 127 175 - 2;
#N canvas 1317 408 450 300 sflen 0;
#X obj 59 98 drawnumber length;
#X obj 64 54 struct sflen float length;
#X restore 1538 227 pd sflen;
#N canvas 1268 237 450 300 ants_len 0;
#X scalar sflen 1.15791e+07 \;;
#X restore 25 9 pd ants_len;
#X obj 606 186 pointer;
#X obj 476 212 append sflen length;
#X msg 606 157 traverse pd-ants_len \, bang;
#X obj 126 31 loadbang;
#X msg 479 181 0;
#X msg 591 97 clear;
#X obj 591 122 s pd-ants_len;
#X obj 127 241 set sflen length;
#X obj 267 708 *~ 0.1;
#N canvas 0 50 450 250 (subpatch) 0;
#X array array1 100 float 3;
#A 0 1e-07 1e-07 1e-07 1e-07 1e-07 1e-07 1e-07 1e-07 1e-07 1e-07 1e-07
1e-07 1e-07 1e-07 1e-07 1e-07 1e-07 1e-07 1e-07 1e-07 1e-07 1e-07 1e-07
1e-07 1e-07 1e-07 1e-07 1e-07 1e-07 1e-07 1e-07 1e-07 1e-07 1e-07 1e-07
1e-07 1e-07 1e-07 1e-07 1e-07 1e-07 1e-07 1e-07 1e-07 1e-07 1e-07 1e-07
1e-07 1e-07 1e-07 1e-07 1e-07 1e-07 1e-07 1e-07 1e-07 1e-07 1e-07 1e-07
1e-07 1e-07 1e-07 1e-07 1e-07 1e-07 1e-07 1e-07 1e-07 1e-07 1e-07 1e-07
1e-07 1e-07 1e-07 1e-07 1e-07 1e-07 1e-07 1e-07 1e-07 1e-07 1e-07 1e-07
1e-07 1e-07 1e-07 1e-07 1e-07 1e-07 1e-07 1e-07 1e-07 1e-07 1e-07 1e-07
1e-07 1e-07 1e-07 1e-07 1e-07;
#X coords 0 1 100 -1 200 140 1;
#X restore 1143 863 graph;
#X obj 659 325 samplerate~;
#X obj 660 299 r pd-dsp-started;
#X obj 659 353 / 1000;
#X obj 659 381 s ms_sr;
#X obj 155 604 nbx 5 14 0 100 0 0 empty empty empty 0 -8 0 10 -262144
-1 -1 7 256;
#X obj 155 629 / 100;
#X obj 155 662 clip 0 1;
#X obj 1430 250 array define window_hanning 256;
#X obj 1430 273 array define window_tri 256;
#N canvas 787 223 747 695 gen_windows 0;
#X obj 90 30 loadbang;
#X obj 90 156 count, f 8;
#X msg 90 65 256;
#X obj 90 126 until;
#X obj 90 97 t f f, f 8;
#X obj 90 247 array set window_hanning;
#X obj 270 247 array set window_tri, f 26;
#N canvas 1220 469 534 469 tri 0;
#X obj 40 185 spigot 1;
#X obj 105 185 spigot 0;
#X obj 158 156 -, f 6;
#X obj 135 61 expr $i1 < 128;
#X msg 158 131 1;
#X obj 135 91 t f b f;
#X obj 40 151 / 128;
#X obj 39 13 inlet;
#X obj 40 338 outlet;
#X obj 105 292 -, f 6;
#X msg 105 267 1;
#X obj 105 240 t b f, f 6;
#X obj 105 212 - 1;
#X connect 0 0 8 0;
#X connect 1 0 12 0;
#X connect 2 0 1 1;
#X connect 3 0 5 0;
#X connect 4 0 2 0;
#X connect 5 0 0 1;
#X connect 5 1 4 0;
#X connect 5 2 2 1;
#X connect 6 0 0 0;
#X connect 6 0 1 0;
#X connect 7 0 3 0;
#X connect 7 0 6 0;
#X connect 9 0 8 0;
#X connect 10 0 9 0;
#X connect 11 0 10 0;
#X connect 11 1 9 1;
#X connect 12 0 11 0;
#X restore 270 218 pd tri;
#N canvas 0 97 450 300 hann 0;
#X obj 91 75 inlet;
#X obj 91 217 outlet, f 7;
#X obj 91 161 sin;
#X obj 91 128 / 256;
#X obj 91 189 *;
#X obj 91 105 * 3.14159;
#X connect 0 0 5 0;
#X connect 2 0 4 1;
#X connect 2 0 4 0;
#X connect 3 0 2 0;
#X connect 4 0 1 0;
#X connect 5 0 3 0;
#X restore 90 219 pd hann;
#X obj 90 184 t f f f f, f 39;
#X connect 0 0 2 0;
#X connect 1 0 9 0;
#X connect 2 0 4 0;
#X connect 3 0 1 0;
#X connect 4 0 3 0;
#X connect 4 1 1 1;
#X connect 7 0 6 0;
#X connect 8 0 5 0;
#X connect 9 0 8 0;
#X connect 9 1 5 1;
#X connect 9 2 7 0;
#X connect 9 3 6 1;
#X restore 1430 227 pd gen_windows;
#X msg 127 112 read -resize ../audio/ants2.wav ants_buf;
#X obj 266 629 granulator ants 16 hanning;
#X obj 235 194 pointer;
#X msg 236 145 traverse pd-ants_len \, next;
#X obj 660 535 r ants_len_p;
#X obj 126 62 t b b b b b, f 67;
#X obj 255 587 tgl 15 0 empty empty empty 17 7 0 10 -262144 -1 -1 0
1;
#X floatatom 291 551 5 0 0 0 - - -;
#X floatatom 330 554 5 0 0 0 - - -;
#X floatatom 371 556 5 0 0 0 - - -;
#X floatatom 414 551 5 0 0 0 - - -;
#X floatatom 463 555 5 0 0 0 - - -;
#X floatatom 504 554 5 0 0 0 - - -;
#X obj 566 555 pointer;
#X obj 95 207 t b b;
#X obj 251 232 s ants_len_p;
#X obj 95 267 s trig_get_len;
#X obj 676 510 r trig_get_len;
#X obj 312 485 bng 15 250 50 0 empty empty empty 17 7 0 10 -262144
-1 -1;
#X obj 205 27 bng 15 250 50 0 empty empty empty 17 7 0 10 -262144 -1
-1;
#X obj 268 738 dac~ 1 2, f 26;
#X obj 446 709 *~ 0.1;
#X obj 981 432 phasor~ 200;
#X obj 940 669 vcf~ 1;
#X obj 916 616 sig~;
#X floatatom 913 591 5 0 0 0 - - -;
#X obj 1120 557 *~ 1000;
#X obj 1120 590 clip~ -1 1;
#X obj 1152 433 osc~ 100;
#X floatatom 1207 523 5 1 1000 0 - - -;
#X obj 985 504 *~ 2;
#X obj 985 529 -~ 1;
#X obj 998 668 bob~ 1;
#X obj 1077 625 hip~ 10;
#X obj 1325 441 unpack 0 0 0 0, f 48;
#X floatatom 1470 352 5 0 0 0 - - -;
#X floatatom 1535 357 5 0 0 0 - - -;
#X floatatom 1587 357 5 0 0 0 - - -;
#X obj 1326 534 *~ 0.25;
#X obj 1436 533 *~ 0.25;
#X obj 1547 534 *~ 0.25;
#X obj 1658 533 *~ 0.25;
#X obj 1326 563 +~;
#X obj 1546 566 +~;
#X obj 1327 600 +~;
#X obj 1325 504 sawsq~, f 13;
#X obj 1436 504 sawsq~, f 13;
#X obj 1547 502 sawsq~, f 13;
#X obj 1658 502 sawsq~, f 13;
#X obj 1204 771 plotter array1 100;
#X floatatom 1523 620 5 0 0 0 - - -;
#X floatatom 1594 593 5 0 0 0 - - -;
#X obj 1325 473 mtof_ji 1;
#X obj 1436 472 mtof_ji 1;
#X obj 1547 475 mtof_ji 1;
#X obj 1658 474 mtof_ji 1;
#X msg 1325 412 49 51 53 55;
#X obj 1199 701 tgl 15 0 empty empty empty 17 7 0 10 -262144 -1 -1
1 1;
#X obj 1203 742 adsr~ 10 100 1e-07 100 1;
#X connect 0 0 2 0;
#X connect 2 0 39 0;
#X connect 5 0 6 1;
#X connect 7 0 5 0;
#X connect 8 0 30 0;
#X connect 9 0 6 0;
#X connect 10 0 11 0;
#X connect 13 0 45 0;
#X connect 15 0 17 0;
#X connect 16 0 15 0;
#X connect 17 0 18 0;
#X connect 19 0 20 0;
#X connect 20 0 21 0;
#X connect 21 0 13 1;
#X connect 21 0 46 1;
#X connect 25 0 0 0;
#X connect 26 0 13 0;
#X connect 26 1 46 0;
#X connect 27 0 12 1;
#X connect 27 0 40 0;
#X connect 28 0 27 0;
#X connect 29 0 38 1;
#X connect 30 0 25 0;
#X connect 30 1 28 0;
#X connect 30 2 9 0;
#X connect 30 3 7 0;
#X connect 30 4 10 0;
#X connect 31 0 26 0;
#X connect 32 0 26 1;
#X connect 33 0 26 2;
#X connect 34 0 26 3;
#X connect 35 0 26 4;
#X connect 36 0 26 5;
#X connect 37 0 26 6;
#X connect 38 0 26 7;
#X connect 39 0 41 0;
#X connect 39 1 12 0;
#X connect 42 0 38 0;
#X connect 43 0 32 0;
#X connect 43 0 33 0;
#X connect 43 0 34 0;
#X connect 43 0 35 0;
#X connect 43 0 36 0;
#X connect 43 0 37 0;
#X connect 43 0 38 0;
#X connect 44 0 30 0;
#X connect 46 0 45 1;
#X connect 48 0 13 0;
#X connect 48 0 46 0;
#X connect 49 0 48 1;
#X connect 49 0 57 1;
#X connect 50 0 49 0;
#X connect 51 0 52 0;
#X connect 52 0 58 0;
#X connect 54 0 51 1;
#X connect 55 0 56 0;
#X connect 56 0 51 0;
#X connect 57 0 13 0;
#X connect 57 0 46 0;
#X connect 58 0 57 0;
#X connect 59 0 77 0;
#X connect 59 1 78 0;
#X connect 59 2 79 0;
#X connect 59 3 80 0;
#X connect 60 0 70 1;
#X connect 60 0 71 1;
#X connect 60 0 72 1;
#X connect 60 0 73 1;
#X connect 61 0 70 2;
#X connect 61 0 71 2;
#X connect 61 0 72 2;
#X connect 61 0 73 2;
#X connect 62 0 70 3;
#X connect 62 0 71 3;
#X connect 62 0 72 3;
#X connect 62 0 73 3;
#X connect 63 0 67 0;
#X connect 64 0 67 1;
#X connect 65 0 68 0;
#X connect 66 0 68 1;
#X connect 67 0 69 0;
#X connect 68 0 69 1;
#X connect 70 0 63 0;
#X connect 71 0 64 0;
#X connect 72 0 65 0;
#X connect 73 0 66 0;
#X connect 77 0 70 0;
#X connect 78 0 71 0;
#X connect 79 0 72 0;
#X connect 79 0 75 0;
#X connect 80 0 73 0;
#X connect 80 0 76 0;
#X connect 81 0 59 0;
#X connect 82 0 83 0;
#X connect 83 0 74 0;
