#N struct sflen float length;
#N canvas 0 97 1920 1103 12;
#X obj 127 142 soundfiler;
#N canvas 0 50 450 250 (subpatch) 0;
#X array ants_buf 1.15791e+07 float 2;
#X coords 0 1 1.15791e+07 -1 200 140 1 0 0;
#X restore 1424 53 graph;
#X obj 127 175 - 2;
#N canvas 1287 384 450 300 sflen 0;
#X obj 59 98 drawnumber length;
#X obj 64 54 struct sflen float length;
#X restore 1538 227 pd sflen;
#N canvas 1148 141 450 300 ants_len 0;
#X scalar sflen 1.15791e+07 \;;
#X restore 25 9 pd ants_len;
#X obj 606 186 pointer;
#X obj 476 212 append sflen length;
#X msg 606 157 traverse pd-ants_len \, bang;
#X obj 126 31 loadbang;
#X msg 479 181 0;
#X msg 591 97 clear;
#X obj 591 122 s pd-ants_len;
#X obj 127 241 set sflen length;
#X obj 267 708 *~ 0.1;
#N canvas 0 50 450 250 (subpatch) 0;
#X array array1 100 float 3;
#A 0 0 0 0 0 0 0 0 0 0 0 0 0 0 0 0 0 0 0 0 0 0 0 0 0 0 0 0 0 0 0 0
0 0 0 0 0 0 0 0 0 0 0 0 0 0 0 0 0 0 0 0 0 0 0 0 0 0 0 0 0 0 0 0 0 0
0 0 0 0 0 0 0 0 0 0 0 0 0 0 0 0 0 0 0 0 0 0 0 0 0 0 0 0 0 0 0 0 0 0
0;
#X coords 0 1 100 -1 200 140 1;
#X restore 226 876 graph;
#X obj 992 980 array set array1;
#X obj 991 952 snapshot~;
#X obj 659 325 samplerate~;
#X obj 660 299 r pd-dsp-started;
#X obj 659 353 / 1000;
#X obj 659 381 s ms_sr;
#X obj 155 604 nbx 5 14 0 100 0 0 empty empty empty 0 -8 0 10 -262144
-1 -1 100 256;
#X obj 155 629 / 100;
#X obj 155 662 clip 0 1;
#X obj 1430 250 array define window_hanning 256;
#X obj 1430 273 array define window_tri 256;
#N canvas 747 191 747 695 gen_windows 0;
#X obj 90 30 loadbang;
#X obj 90 156 count, f 8;
#X msg 90 65 256;
#X obj 90 126 until;
#X obj 90 97 t f f, f 8;
#X obj 90 247 array set window_hanning;
#X obj 270 247 array set window_tri, f 26;
#N canvas 1220 469 534 469 tri 0;
#X obj 40 185 spigot 1;
#X obj 105 185 spigot 0;
#X obj 158 156 -, f 6;
#X obj 135 61 expr $i1 < 128;
#X msg 158 131 1;
#X obj 135 91 t f b f;
#X obj 40 151 / 128;
#X obj 39 13 inlet;
#X obj 40 338 outlet;
#X obj 105 292 -, f 6;
#X msg 105 267 1;
#X obj 105 240 t b f, f 6;
#X obj 105 212 - 1;
#X connect 0 0 8 0;
#X connect 1 0 12 0;
#X connect 2 0 1 1;
#X connect 3 0 5 0;
#X connect 4 0 2 0;
#X connect 5 0 0 1;
#X connect 5 1 4 0;
#X connect 5 2 2 1;
#X connect 6 0 0 0;
#X connect 6 0 1 0;
#X connect 7 0 3 0;
#X connect 7 0 6 0;
#X connect 9 0 8 0;
#X connect 10 0 9 0;
#X connect 11 0 10 0;
#X connect 11 1 9 1;
#X connect 12 0 11 0;
#X restore 270 218 pd tri;
#N canvas 0 97 450 300 hann 0;
#X obj 91 75 inlet;
#X obj 91 217 outlet, f 7;
#X obj 91 161 sin;
#X obj 91 128 / 256;
#X obj 91 189 *;
#X obj 91 105 * 3.14159;
#X connect 0 0 5 0;
#X connect 2 0 4 1;
#X connect 2 0 4 0;
#X connect 3 0 2 0;
#X connect 4 0 1 0;
#X connect 5 0 3 0;
#X restore 90 219 pd hann;
#X obj 90 184 t f f f f, f 39;
#X connect 0 0 2 0;
#X connect 1 0 9 0;
#X connect 2 0 4 0;
#X connect 3 0 1 0;
#X connect 4 0 3 0;
#X connect 4 1 1 1;
#X connect 7 0 6 0;
#X connect 8 0 5 0;
#X connect 9 0 8 0;
#X connect 9 1 5 1;
#X connect 9 2 7 0;
#X connect 9 3 6 1;
#X restore 1430 227 pd gen_windows;
#X msg 127 112 read -resize ../audio/ants2.wav ants_buf;
#X obj 266 629 granulator ants 16 hanning;
#X obj 235 194 pointer;
#X obj 660 535 r ants_len_p;
#X obj 126 62 t b b b b b, f 67;
#X obj 255 587 tgl 15 0 empty empty empty 17 7 0 10 -262144 -1 -1 0
1;
#X floatatom 291 551 5 0 0 0 - - -;
#X floatatom 330 554 5 0 0 0 - - -;
#X floatatom 371 556 5 0 0 0 - - -;
#X floatatom 414 551 5 0 0 0 - - -;
#X floatatom 463 555 5 0 0 0 - - -;
#X floatatom 504 554 5 0 0 0 - - -;
#X obj 566 555 pointer;
#X obj 251 232 s ants_len_p;
#X obj 95 267 s trig_get_len;
#X obj 676 510 r trig_get_len;
#X obj 312 485 bng 15 250 50 0 empty empty empty 17 7 0 10 -262144
-1 -1;
#X floatatom 990 897 5 0 0 0 - - -;
#X obj 205 27 bng 15 250 50 0 empty empty empty 17 7 0 10 -262144 -1
-1;
#X obj 267 850 dac~ 1 2, f 26;
#X obj 446 709 *~ 0.1;
#X msg 1169 425 36 41 44 49;
#X obj 1169 455 unpack 0 0 0 0, f 27;
#X obj 992 918 plot_driver;
#X obj 1009 74 netreceive -u -b 5555;
#X obj 1009 105 fudiparse;
#X obj 1009 133 unpack s 0 0 0 0 0;
#X obj 1033 177 / 5;
#X obj 1027 260 osc~;
#X obj 904 460 spiketrain 0;
#X obj 348 235 print;
#X obj 95 207 t b f;
#X msg 236 145 traverse pd-ants_len \, next;
#X obj 267 743 *~;
#X obj 446 744 *~;
#X obj 268 799 *~ 2;
#X obj 446 801 *~ 2;
#X obj 162 748 nbx 5 14 0 5 0 0 empty empty empty 0 -8 0 10 -262144
-1 -1 4 256;
#N canvas 464 461 915 563 microtones 1;
#X obj 250 41 inlet;
#X obj 365 491 outlet;
#X obj 301 102 % 12;
#X obj 301 127 select 0 1 2 3 4 5 6 7 8 9 10 11, f 64;
#X obj 301 156 1;
#X obj 338 158 rat 256 243;
#X obj 375 184 rat 9 8;
#X obj 412 215 rat 32 27;
#X obj 449 158 rat 81 64;
#X obj 487 183 rat 4 3;
#X obj 523 217 rat 1024 729;
#X obj 560 158 rat 3 2;
#X obj 597 183 rat 128 81;
#X obj 635 217 rat 27 16;
#X obj 671 158 rat 16 9;
#X obj 709 186 rat 243 128;
#X obj 423 47 260.741;
#X obj 130 148 t f f, f 6;
#X obj 130 258 spigot;
#X obj 218 229 spigot;
#X obj 130 286 !- 5;
#X obj 130 313 t b b f;
#X obj 153 367 pow, f 5;
#X obj 423 73 v \$0-mid_c;
#X obj 423 21 loadbang;
#X obj 72 367 v \$0-mid_c;
#X obj 72 398 /, f 12;
#X obj 218 255 - 5;
#X obj 218 287 t b b f, f 16;
#X obj 299 367 pow, f 5;
#X obj 153 340 2;
#X obj 299 341 2;
#X obj 169 185 expr $i1 < 5 \; $i1 >= 5;
#X obj 218 398 *, f 12;
#X obj 218 367 v \$0-mid_c;
#X obj 365 462 *;
#X floatatom 144 23 5 0 0 0 - - -;
#X obj 250 71 t i f;
#X obj 130 103 expr $i1 / 12;
#X connect 0 0 37 0;
#X connect 2 0 3 0;
#X connect 3 0 4 0;
#X connect 3 1 5 0;
#X connect 3 2 6 0;
#X connect 3 3 7 0;
#X connect 3 4 8 0;
#X connect 3 5 9 0;
#X connect 3 6 10 0;
#X connect 3 7 11 0;
#X connect 3 8 12 0;
#X connect 3 9 13 0;
#X connect 3 10 14 0;
#X connect 3 11 15 0;
#X connect 4 0 35 1;
#X connect 5 0 35 1;
#X connect 6 0 35 1;
#X connect 7 0 35 1;
#X connect 8 0 35 1;
#X connect 9 0 35 1;
#X connect 10 0 35 1;
#X connect 11 0 35 1;
#X connect 12 0 35 1;
#X connect 13 0 35 1;
#X connect 14 0 35 1;
#X connect 15 0 35 1;
#X connect 16 0 23 0;
#X connect 17 0 19 0;
#X connect 17 0 18 0;
#X connect 17 1 32 0;
#X connect 18 0 20 0;
#X connect 19 0 27 0;
#X connect 20 0 21 0;
#X connect 21 0 25 0;
#X connect 21 1 30 0;
#X connect 21 2 22 1;
#X connect 22 0 26 1;
#X connect 24 0 16 0;
#X connect 25 0 26 0;
#X connect 26 0 35 0;
#X connect 27 0 28 0;
#X connect 28 0 34 0;
#X connect 28 1 31 0;
#X connect 28 2 29 1;
#X connect 29 0 33 1;
#X connect 30 0 22 0;
#X connect 31 0 29 0;
#X connect 32 0 18 1;
#X connect 32 1 19 1;
#X connect 33 0 35 0;
#X connect 34 0 33 0;
#X connect 35 0 1 0;
#X connect 36 0 37 0;
#X connect 37 0 38 0;
#X connect 37 1 2 0;
#X connect 38 0 17 0;
#X restore 1096 506 pd microtones;
#N canvas 454 453 915 563 microtones 1;
#X obj 250 41 inlet;
#X obj 365 491 outlet;
#X obj 301 102 % 12;
#X obj 301 127 select 0 1 2 3 4 5 6 7 8 9 10 11, f 64;
#X obj 301 156 1;
#X obj 338 158 rat 256 243;
#X obj 375 184 rat 9 8;
#X obj 412 215 rat 32 27;
#X obj 449 158 rat 81 64;
#X obj 487 183 rat 4 3;
#X obj 523 217 rat 1024 729;
#X obj 560 158 rat 3 2;
#X obj 597 183 rat 128 81;
#X obj 635 217 rat 27 16;
#X obj 671 158 rat 16 9;
#X obj 709 186 rat 243 128;
#X obj 423 47 260.741;
#X obj 130 148 t f f, f 6;
#X obj 130 258 spigot;
#X obj 218 229 spigot;
#X obj 130 286 !- 5;
#X obj 130 313 t b b f;
#X obj 153 367 pow, f 5;
#X obj 423 73 v \$0-mid_c;
#X obj 423 21 loadbang;
#X obj 72 367 v \$0-mid_c;
#X obj 72 398 /, f 12;
#X obj 218 255 - 5;
#X obj 218 287 t b b f, f 16;
#X obj 299 367 pow, f 5;
#X obj 153 340 2;
#X obj 299 341 2;
#X obj 169 185 expr $i1 < 5 \; $i1 >= 5;
#X obj 218 398 *, f 12;
#X obj 218 367 v \$0-mid_c;
#X obj 365 462 *;
#X floatatom 144 23 5 0 0 0 - - -;
#X obj 250 71 t i f;
#X obj 130 103 expr $i1 / 12;
#X connect 0 0 37 0;
#X connect 2 0 3 0;
#X connect 3 0 4 0;
#X connect 3 1 5 0;
#X connect 3 2 6 0;
#X connect 3 3 7 0;
#X connect 3 4 8 0;
#X connect 3 5 9 0;
#X connect 3 6 10 0;
#X connect 3 7 11 0;
#X connect 3 8 12 0;
#X connect 3 9 13 0;
#X connect 3 10 14 0;
#X connect 3 11 15 0;
#X connect 4 0 35 1;
#X connect 5 0 35 1;
#X connect 6 0 35 1;
#X connect 7 0 35 1;
#X connect 8 0 35 1;
#X connect 9 0 35 1;
#X connect 10 0 35 1;
#X connect 11 0 35 1;
#X connect 12 0 35 1;
#X connect 13 0 35 1;
#X connect 14 0 35 1;
#X connect 15 0 35 1;
#X connect 16 0 23 0;
#X connect 17 0 19 0;
#X connect 17 0 18 0;
#X connect 17 1 32 0;
#X connect 18 0 20 0;
#X connect 19 0 27 0;
#X connect 20 0 21 0;
#X connect 21 0 25 0;
#X connect 21 1 30 0;
#X connect 21 2 22 1;
#X connect 22 0 26 1;
#X connect 24 0 16 0;
#X connect 25 0 26 0;
#X connect 26 0 35 0;
#X connect 27 0 28 0;
#X connect 28 0 34 0;
#X connect 28 1 31 0;
#X connect 28 2 29 1;
#X connect 29 0 33 1;
#X connect 30 0 22 0;
#X connect 31 0 29 0;
#X connect 32 0 18 1;
#X connect 32 1 19 1;
#X connect 33 0 35 0;
#X connect 34 0 33 0;
#X connect 35 0 1 0;
#X connect 36 0 37 0;
#X connect 37 0 38 0;
#X connect 37 1 2 0;
#X connect 38 0 17 0;
#X restore 1200 505 pd microtones;
#N canvas 444 445 915 563 microtones 0;
#X obj 250 41 inlet;
#X obj 365 491 outlet;
#X obj 301 102 % 12;
#X obj 301 127 select 0 1 2 3 4 5 6 7 8 9 10 11, f 64;
#X obj 301 156 1;
#X obj 338 158 rat 256 243;
#X obj 375 184 rat 9 8;
#X obj 412 215 rat 32 27;
#X obj 449 158 rat 81 64;
#X obj 487 183 rat 4 3;
#X obj 523 217 rat 1024 729;
#X obj 560 158 rat 3 2;
#X obj 597 183 rat 128 81;
#X obj 635 217 rat 27 16;
#X obj 671 158 rat 16 9;
#X obj 709 186 rat 243 128;
#X obj 423 47 260.741;
#X obj 130 148 t f f, f 6;
#X obj 130 258 spigot;
#X obj 218 229 spigot;
#X obj 130 286 !- 5;
#X obj 130 313 t b b f;
#X obj 153 367 pow, f 5;
#X obj 423 73 v \$0-mid_c;
#X obj 423 21 loadbang;
#X obj 72 367 v \$0-mid_c;
#X obj 72 398 /, f 12;
#X obj 218 255 - 5;
#X obj 218 287 t b b f, f 16;
#X obj 299 367 pow, f 5;
#X obj 153 340 2;
#X obj 299 341 2;
#X obj 169 185 expr $i1 < 5 \; $i1 >= 5;
#X obj 218 398 *, f 12;
#X obj 218 367 v \$0-mid_c;
#X obj 365 462 *;
#X floatatom 144 23 5 0 0 0 - - -;
#X obj 250 71 t i f;
#X obj 130 103 expr $i1 / 12;
#X connect 0 0 37 0;
#X connect 2 0 3 0;
#X connect 3 0 4 0;
#X connect 3 1 5 0;
#X connect 3 2 6 0;
#X connect 3 3 7 0;
#X connect 3 4 8 0;
#X connect 3 5 9 0;
#X connect 3 6 10 0;
#X connect 3 7 11 0;
#X connect 3 8 12 0;
#X connect 3 9 13 0;
#X connect 3 10 14 0;
#X connect 3 11 15 0;
#X connect 4 0 35 1;
#X connect 5 0 35 1;
#X connect 6 0 35 1;
#X connect 7 0 35 1;
#X connect 8 0 35 1;
#X connect 9 0 35 1;
#X connect 10 0 35 1;
#X connect 11 0 35 1;
#X connect 12 0 35 1;
#X connect 13 0 35 1;
#X connect 14 0 35 1;
#X connect 15 0 35 1;
#X connect 16 0 23 0;
#X connect 17 0 19 0;
#X connect 17 0 18 0;
#X connect 17 1 32 0;
#X connect 18 0 20 0;
#X connect 19 0 27 0;
#X connect 20 0 21 0;
#X connect 21 0 25 0;
#X connect 21 1 30 0;
#X connect 21 2 22 1;
#X connect 22 0 26 1;
#X connect 24 0 16 0;
#X connect 25 0 26 0;
#X connect 26 0 35 0;
#X connect 27 0 28 0;
#X connect 28 0 34 0;
#X connect 28 1 31 0;
#X connect 28 2 29 1;
#X connect 29 0 33 1;
#X connect 30 0 22 0;
#X connect 31 0 29 0;
#X connect 32 0 18 1;
#X connect 32 1 19 1;
#X connect 33 0 35 0;
#X connect 34 0 33 0;
#X connect 35 0 1 0;
#X connect 36 0 37 0;
#X connect 37 0 38 0;
#X connect 37 1 2 0;
#X connect 38 0 17 0;
#X restore 1303 506 pd microtones;
#N canvas 444 445 915 563 microtones 0;
#X obj 250 41 inlet;
#X obj 365 491 outlet;
#X obj 301 102 % 12;
#X obj 301 127 select 0 1 2 3 4 5 6 7 8 9 10 11, f 64;
#X obj 301 156 1;
#X obj 338 158 rat 256 243;
#X obj 375 184 rat 9 8;
#X obj 412 215 rat 32 27;
#X obj 449 158 rat 81 64;
#X obj 487 183 rat 4 3;
#X obj 523 217 rat 1024 729;
#X obj 560 158 rat 3 2;
#X obj 597 183 rat 128 81;
#X obj 635 217 rat 27 16;
#X obj 671 158 rat 16 9;
#X obj 709 186 rat 243 128;
#X obj 423 47 260.741;
#X obj 130 148 t f f, f 6;
#X obj 130 258 spigot;
#X obj 218 229 spigot;
#X obj 130 286 !- 5;
#X obj 130 313 t b b f;
#X obj 153 367 pow, f 5;
#X obj 423 73 v \$0-mid_c;
#X obj 423 21 loadbang;
#X obj 72 367 v \$0-mid_c;
#X obj 72 398 /, f 12;
#X obj 218 255 - 5;
#X obj 218 287 t b b f, f 16;
#X obj 299 367 pow, f 5;
#X obj 153 340 2;
#X obj 299 341 2;
#X obj 169 185 expr $i1 < 5 \; $i1 >= 5;
#X obj 218 398 *, f 12;
#X obj 218 367 v \$0-mid_c;
#X obj 365 462 *;
#X floatatom 144 23 5 0 0 0 - - -;
#X obj 250 71 t i f;
#X obj 130 103 expr $i1 / 12;
#X connect 0 0 37 0;
#X connect 2 0 3 0;
#X connect 3 0 4 0;
#X connect 3 1 5 0;
#X connect 3 2 6 0;
#X connect 3 3 7 0;
#X connect 3 4 8 0;
#X connect 3 5 9 0;
#X connect 3 6 10 0;
#X connect 3 7 11 0;
#X connect 3 8 12 0;
#X connect 3 9 13 0;
#X connect 3 10 14 0;
#X connect 3 11 15 0;
#X connect 4 0 35 1;
#X connect 5 0 35 1;
#X connect 6 0 35 1;
#X connect 7 0 35 1;
#X connect 8 0 35 1;
#X connect 9 0 35 1;
#X connect 10 0 35 1;
#X connect 11 0 35 1;
#X connect 12 0 35 1;
#X connect 13 0 35 1;
#X connect 14 0 35 1;
#X connect 15 0 35 1;
#X connect 16 0 23 0;
#X connect 17 0 19 0;
#X connect 17 0 18 0;
#X connect 17 1 32 0;
#X connect 18 0 20 0;
#X connect 19 0 27 0;
#X connect 20 0 21 0;
#X connect 21 0 25 0;
#X connect 21 1 30 0;
#X connect 21 2 22 1;
#X connect 22 0 26 1;
#X connect 24 0 16 0;
#X connect 25 0 26 0;
#X connect 26 0 35 0;
#X connect 27 0 28 0;
#X connect 28 0 34 0;
#X connect 28 1 31 0;
#X connect 28 2 29 1;
#X connect 29 0 33 1;
#X connect 30 0 22 0;
#X connect 31 0 29 0;
#X connect 32 0 18 1;
#X connect 32 1 19 1;
#X connect 33 0 35 0;
#X connect 34 0 33 0;
#X connect 35 0 1 0;
#X connect 36 0 37 0;
#X connect 37 0 38 0;
#X connect 37 1 2 0;
#X connect 38 0 17 0;
#X restore 1403 504 pd microtones;
#X obj 1096 540 phasor~;
#X obj 1215 544 phasor~;
#X obj 1320 543 phasor~;
#X obj 1439 547 phasor~;
#X connect 0 0 2 0;
#X connect 2 0 58 0;
#X connect 5 0 6 1;
#X connect 7 0 5 0;
#X connect 8 0 31 0;
#X connect 9 0 6 0;
#X connect 10 0 11 0;
#X connect 13 0 60 0;
#X connect 16 0 15 0;
#X connect 17 0 19 0;
#X connect 18 0 17 0;
#X connect 19 0 20 0;
#X connect 21 0 22 0;
#X connect 22 0 23 0;
#X connect 23 0 47 1;
#X connect 23 0 13 1;
#X connect 27 0 0 0;
#X connect 28 0 13 0;
#X connect 28 1 47 0;
#X connect 29 0 12 1;
#X connect 29 0 40 0;
#X connect 29 0 57 0;
#X connect 30 0 39 1;
#X connect 31 0 27 0;
#X connect 31 1 59 0;
#X connect 31 2 9 0;
#X connect 31 3 7 0;
#X connect 31 4 10 0;
#X connect 32 0 28 0;
#X connect 33 0 28 1;
#X connect 34 0 28 2;
#X connect 35 0 28 3;
#X connect 36 0 28 4;
#X connect 37 0 28 5;
#X connect 38 0 28 6;
#X connect 39 0 28 7;
#X connect 42 0 39 0;
#X connect 43 0 33 0;
#X connect 43 0 34 0;
#X connect 43 0 35 0;
#X connect 43 0 36 0;
#X connect 43 0 37 0;
#X connect 43 0 38 0;
#X connect 43 0 39 0;
#X connect 44 0 50 0;
#X connect 45 0 31 0;
#X connect 47 0 61 0;
#X connect 48 0 49 0;
#X connect 49 0 65 0;
#X connect 49 1 66 0;
#X connect 49 2 67 0;
#X connect 49 3 68 0;
#X connect 50 0 16 0;
#X connect 50 1 15 1;
#X connect 51 0 52 0;
#X connect 52 0 53 0;
#X connect 53 1 54 0;
#X connect 54 0 56 0;
#X connect 56 0 60 1;
#X connect 56 0 61 1;
#X connect 58 0 41 0;
#X connect 58 1 12 0;
#X connect 59 0 29 0;
#X connect 60 0 62 0;
#X connect 61 0 63 0;
#X connect 62 0 46 0;
#X connect 63 0 46 1;
#X connect 64 0 62 1;
#X connect 64 0 63 1;
#X connect 65 0 69 0;
#X connect 66 0 70 0;
#X connect 67 0 71 0;
#X connect 68 0 72 0;
