#N struct sflen float length;
#N canvas 0 97 1920 1103 12;
#X obj 127 142 soundfiler;
#N canvas 0 50 450 250 (subpatch) 0;
#X array ants_buf 1.15791e+07 float 2;
#X coords 0 1 1.15791e+07 -1 200 140 1 0 0;
#X restore 1424 53 graph;
#X obj 127 175 - 2;
#N canvas 1287 384 450 300 sflen 0;
#X obj 59 98 drawnumber length;
#X obj 64 54 struct sflen float length;
#X restore 1538 227 pd sflen;
#N canvas 1148 141 450 300 ants_len 0;
#X scalar sflen 1.15791e+07 \;;
#X restore 25 9 pd ants_len;
#X obj 606 186 pointer;
#X obj 476 212 append sflen length;
#X msg 606 157 traverse pd-ants_len \, bang;
#X obj 126 31 loadbang;
#X msg 479 181 0;
#X msg 591 97 clear;
#X obj 591 122 s pd-ants_len;
#X obj 127 241 set sflen length;
#X obj 267 708 *~ 0.1;
#N canvas 0 50 450 250 (subpatch) 0;
#X array array1 100 float 3;
#A 0 0.0216621 0.0124495 0.00134601 -0.0049109 -0.0106386 -0.0164734
-0.0200069 -0.0236619 -0.0266715 -0.0512611 0.490568 0.411341 0.372062
0.319588 0.285766 0.257525 0.225452 0.207711 0.164102 0.13281 0.0973394
0.0644049 0.0404713 0.0336432 0.0257714 0.0164901 0.0133249 0.00670424
0.00685519 3.22622e-07 1.32208e-11 5.41776e-16 2.22015e-20 0.0269493
0.0196888 0.0200011 0.0209062 0.00305364 -1.30553e-05 -5.34993e-10
-2.19235e-14 -8.98408e-19 -3.6816e-23 -1.50869e-27 -0.00564944 -0.000889216
-0.0510679 1.02096 0.96031 0.921667 0.907832 0.874635 0.850057 0.824173
0.79757 0.777764 0.745338 0.728406 0.714357 0.680043 0.66502 0.646969
0.616073 0.590528 0.571129 0.534137 0.492781 0.461725 0.449374 0.394996
0.365029 0.334723 0.295633 0.255571 0.175747 0.142482 0.110601 0.0770965
0.0533324 0.0275449 0.0132435 -0.00903758 -0.020366 -0.0321522 -0.0373032
-0.0425738 -4.91639e-35 0 0 0 -0.00172052 0.159695 0.129167 0.106278
0.0874985 0.0741795 0.0636829 0.0503542 0.0375623 0.0271923;
#X coords 0 1 100 -1 200 140 1;
#X restore 606 833 graph;
#X obj 992 980 array set array1;
#X obj 991 952 snapshot~;
#X obj 659 325 samplerate~;
#X obj 660 299 r pd-dsp-started;
#X obj 659 353 / 1000;
#X obj 659 381 s ms_sr;
#X obj 155 604 nbx 5 14 0 100 0 0 empty empty empty 0 -8 0 10 -262144
-1 -1 100 256;
#X obj 155 629 / 100;
#X obj 155 662 clip 0 1;
#X obj 1430 250 array define window_hanning 256;
#X obj 1430 273 array define window_tri 256;
#N canvas 747 191 747 695 gen_windows 0;
#X obj 90 30 loadbang;
#X obj 90 156 count, f 8;
#X msg 90 65 256;
#X obj 90 126 until;
#X obj 90 97 t f f, f 8;
#X obj 90 247 array set window_hanning;
#X obj 270 247 array set window_tri, f 26;
#N canvas 1220 469 534 469 tri 0;
#X obj 40 185 spigot 1;
#X obj 105 185 spigot 0;
#X obj 158 156 -, f 6;
#X obj 135 61 expr $i1 < 128;
#X msg 158 131 1;
#X obj 135 91 t f b f;
#X obj 40 151 / 128;
#X obj 39 13 inlet;
#X obj 40 338 outlet;
#X obj 105 292 -, f 6;
#X msg 105 267 1;
#X obj 105 240 t b f, f 6;
#X obj 105 212 - 1;
#X connect 0 0 8 0;
#X connect 1 0 12 0;
#X connect 2 0 1 1;
#X connect 3 0 5 0;
#X connect 4 0 2 0;
#X connect 5 0 0 1;
#X connect 5 1 4 0;
#X connect 5 2 2 1;
#X connect 6 0 0 0;
#X connect 6 0 1 0;
#X connect 7 0 3 0;
#X connect 7 0 6 0;
#X connect 9 0 8 0;
#X connect 10 0 9 0;
#X connect 11 0 10 0;
#X connect 11 1 9 1;
#X connect 12 0 11 0;
#X restore 270 218 pd tri;
#N canvas 0 97 450 300 hann 0;
#X obj 91 75 inlet;
#X obj 91 217 outlet, f 7;
#X obj 91 161 sin;
#X obj 91 128 / 256;
#X obj 91 189 *;
#X obj 91 105 * 3.14159;
#X connect 0 0 5 0;
#X connect 2 0 4 1;
#X connect 2 0 4 0;
#X connect 3 0 2 0;
#X connect 4 0 1 0;
#X connect 5 0 3 0;
#X restore 90 219 pd hann;
#X obj 90 184 t f f f f, f 39;
#X connect 0 0 2 0;
#X connect 1 0 9 0;
#X connect 2 0 4 0;
#X connect 3 0 1 0;
#X connect 4 0 3 0;
#X connect 4 1 1 1;
#X connect 7 0 6 0;
#X connect 8 0 5 0;
#X connect 9 0 8 0;
#X connect 9 1 5 1;
#X connect 9 2 7 0;
#X connect 9 3 6 1;
#X restore 1430 227 pd gen_windows;
#X msg 127 112 read -resize ../audio/ants2.wav ants_buf;
#X obj 266 629 granulator ants 16 hanning;
#X obj 235 194 pointer;
#X obj 660 535 r ants_len_p;
#X obj 126 62 t b b b b b, f 67;
#X obj 255 587 tgl 15 0 empty empty empty 17 7 0 10 -262144 -1 -1 0
1;
#X floatatom 291 551 5 0 0 0 - - -;
#X floatatom 330 554 5 0 0 0 - - -;
#X floatatom 371 556 5 0 0 0 - - -;
#X floatatom 414 551 5 0 0 0 - - -;
#X floatatom 463 555 5 0 0 0 - - -;
#X floatatom 504 554 5 0 0 0 - - -;
#X obj 566 555 pointer;
#X obj 251 232 s ants_len_p;
#X obj 95 267 s trig_get_len;
#X obj 676 510 r trig_get_len;
#X obj 312 485 bng 15 250 50 0 empty empty empty 17 7 0 10 -262144
-1 -1;
#X floatatom 990 897 5 0 0 0 - - -;
#X obj 205 27 bng 15 250 50 0 empty empty empty 17 7 0 10 -262144 -1
-1;
#X obj 267 850 dac~ 1 2, f 26;
#X obj 446 709 *~ 0.1;
#X obj 1095 406 unpack 0 0 0 0, f 27;
#X obj 992 918 plot_driver;
#X obj 1009 74 netreceive -u -b 5555;
#X obj 1009 105 fudiparse;
#X obj 1009 133 unpack s 0 0 0 0 0;
#X obj 1033 177 / 5;
#X obj 1027 260 osc~;
#X obj 906 467 spiketrain 0;
#X obj 348 235 print;
#X obj 95 207 t b f;
#X msg 236 145 traverse pd-ants_len \, next;
#X obj 267 743 *~;
#X obj 446 744 *~;
#X obj 268 799 *~ 2;
#X obj 446 801 *~ 2;
#X obj 162 748 nbx 5 14 0 5 0 0 empty empty empty 0 -8 0 10 -262144
-1 -1 0 256;
#X obj 1096 540 phasor~;
#X obj 1200 542 phasor~;
#X obj 1304 543 phasor~;
#X obj 1404 546 phasor~;
#X obj 1093 709 +~, f 5;
#X obj 1093 744 +~, f 5;
#X obj 1093 783 +~, f 5;
#X obj 1097 567 *~ 2;
#X obj 1096 594 -~ 1;
#X obj 1202 571 *~ 2;
#X obj 1201 598 -~ 1;
#X obj 1303 572 *~ 2;
#X obj 1302 599 -~ 1;
#X obj 1411 577 *~ 2;
#X obj 1410 604 -~ 1;
#X obj 1092 670 *~ 0.1;
#X obj 1198 656 *~ 0.1;
#X obj 1308 675 *~ 0.1;
#X obj 1400 674 *~ 0.1;
#X obj 1004 449 pow;
#X floatatom 1004 376 5 0 0 0 - - -;
#X obj 1004 397 t b i;
#X obj 1004 423 2;
#X obj 1095 496 *;
#X obj 1205 501 *;
#X obj 1332 503 *;
#X obj 1406 505 *;
#X obj 1525 366 array define -k 13_limit 12;
#A 0 1 1.07692 1.08333 1.18182 1.23077 1.3 1.38462 1.625 1.69231 1.73333
1.84615 1.85714;
#N canvas 0 97 1083 683 set_ratios 0;
#X obj 214 136 % 12;
#X obj 213 204 select 0 1 2 3 4 5 6 7 8 9 10 11, f 64;
#X obj 213 233 1;
#X obj 250 234 rat 14 13;
#X obj 287 261 rat 13 12;
#X obj 324 292 rat 13 11;
#X obj 361 235 rat 16 13;
#X obj 399 260 rat 13 10;
#X obj 435 294 rat 18 13;
#X obj 472 235 rat 13 8;
#X obj 509 260 rat 22 13;
#X obj 583 235 rat 24 13;
#X obj 547 294 rat 26 15;
#X obj 621 263 rat 13 7;
#X floatatom 217 86 5 0 0 0 - - -;
#X obj 219 170 t f f;
#X obj 270 376 array set \$1;
#X connect 0 0 15 0;
#X connect 1 0 2 0;
#X connect 1 1 3 0;
#X connect 1 2 4 0;
#X connect 1 3 5 0;
#X connect 1 4 6 0;
#X connect 1 5 7 0;
#X connect 1 6 8 0;
#X connect 1 7 9 0;
#X connect 1 8 10 0;
#X connect 1 9 12 0;
#X connect 1 10 11 0;
#X connect 1 11 13 0;
#X connect 2 0 16 0;
#X connect 3 0 16 0;
#X connect 4 0 16 0;
#X connect 5 0 16 0;
#X connect 6 0 16 0;
#X connect 7 0 16 0;
#X connect 8 0 16 0;
#X connect 9 0 16 0;
#X connect 10 0 16 0;
#X connect 11 0 16 0;
#X connect 12 0 16 0;
#X connect 13 0 16 0;
#X connect 14 0 0 0;
#X connect 15 0 1 0;
#X connect 15 1 16 1;
#X restore 1717 225 pd set_ratios 13_limit;
#X obj 1095 460 microtonal 13_limit;
#X obj 1251 460 microtonal 13_limit;
#X obj 1413 459 microtonal 13_limit;
#X obj 1560 458 microtonal 13_limit;
#X msg 1136 321 39 43 47 49;
#X msg 1325 323 41 43 47 52;
#X obj 1044 635 lop~;
#X obj 1153 623 lop~;
#X obj 1270 625 lop~;
#X obj 1365 628 lop~;
#X msg 1635 323 41 43 49 55;
#X obj 1007 481 t b;
#X msg 1430 322 41 43 51 57;
#X msg 1534 321 41 43 50 56;
#X msg 1034 323 48 39 43 46;
#X msg 1234 322 41 43 48 53;
#X connect 0 0 2 0;
#X connect 2 0 57 0;
#X connect 5 0 6 1;
#X connect 7 0 5 0;
#X connect 8 0 31 0;
#X connect 9 0 6 0;
#X connect 10 0 11 0;
#X connect 13 0 59 0;
#X connect 16 0 15 0;
#X connect 17 0 19 0;
#X connect 18 0 17 0;
#X connect 19 0 20 0;
#X connect 21 0 22 0;
#X connect 22 0 23 0;
#X connect 23 0 47 1;
#X connect 23 0 13 1;
#X connect 27 0 0 0;
#X connect 28 0 13 0;
#X connect 28 1 47 0;
#X connect 29 0 12 1;
#X connect 29 0 40 0;
#X connect 29 0 56 0;
#X connect 30 0 39 1;
#X connect 31 0 27 0;
#X connect 31 1 58 0;
#X connect 31 2 9 0;
#X connect 31 3 7 0;
#X connect 31 4 10 0;
#X connect 32 0 28 0;
#X connect 33 0 28 1;
#X connect 34 0 28 2;
#X connect 35 0 28 3;
#X connect 36 0 28 4;
#X connect 37 0 28 5;
#X connect 38 0 28 6;
#X connect 39 0 28 7;
#X connect 42 0 39 0;
#X connect 43 0 33 0;
#X connect 43 0 34 0;
#X connect 43 0 35 0;
#X connect 43 0 36 0;
#X connect 43 0 37 0;
#X connect 43 0 38 0;
#X connect 43 0 39 0;
#X connect 44 0 49 0;
#X connect 45 0 31 0;
#X connect 47 0 60 0;
#X connect 48 0 93 0;
#X connect 48 1 94 0;
#X connect 48 2 95 0;
#X connect 48 3 96 0;
#X connect 49 0 16 0;
#X connect 49 1 15 1;
#X connect 50 0 51 0;
#X connect 51 0 52 0;
#X connect 52 1 53 0;
#X connect 53 0 55 0;
#X connect 55 0 59 1;
#X connect 55 0 60 1;
#X connect 55 0 16 0;
#X connect 57 0 41 0;
#X connect 57 1 12 0;
#X connect 58 0 29 0;
#X connect 59 0 61 0;
#X connect 60 0 62 0;
#X connect 61 0 46 0;
#X connect 62 0 46 1;
#X connect 63 0 61 1;
#X connect 63 0 62 1;
#X connect 64 0 71 0;
#X connect 65 0 73 0;
#X connect 66 0 75 0;
#X connect 67 0 77 0;
#X connect 68 0 69 0;
#X connect 69 0 70 0;
#X connect 70 0 61 0;
#X connect 70 0 62 0;
#X connect 71 0 72 0;
#X connect 72 0 99 0;
#X connect 73 0 74 0;
#X connect 74 0 100 0;
#X connect 75 0 76 0;
#X connect 76 0 101 0;
#X connect 77 0 78 0;
#X connect 78 0 102 0;
#X connect 79 0 68 0;
#X connect 80 0 68 1;
#X connect 81 0 69 1;
#X connect 82 0 70 1;
#X connect 83 0 87 1;
#X connect 83 0 88 1;
#X connect 83 0 89 1;
#X connect 83 0 90 1;
#X connect 83 0 104 0;
#X connect 84 0 85 0;
#X connect 85 0 86 0;
#X connect 85 1 83 1;
#X connect 86 0 83 0;
#X connect 87 0 64 0;
#X connect 87 0 99 1;
#X connect 88 0 65 0;
#X connect 88 0 100 1;
#X connect 89 0 66 0;
#X connect 89 0 101 1;
#X connect 90 0 67 0;
#X connect 90 0 102 1;
#X connect 93 0 87 0;
#X connect 94 0 88 0;
#X connect 95 0 89 0;
#X connect 96 0 90 0;
#X connect 97 0 48 0;
#X connect 98 0 48 0;
#X connect 99 0 79 0;
#X connect 100 0 80 0;
#X connect 101 0 81 0;
#X connect 102 0 82 0;
#X connect 103 0 48 0;
#X connect 104 0 87 0;
#X connect 104 0 88 0;
#X connect 104 0 89 0;
#X connect 104 0 90 0;
#X connect 105 0 48 0;
#X connect 106 0 48 0;
#X connect 107 0 48 0;
#X connect 108 0 48 0;
