#N canvas 543 280 450 300 12;
#X obj 71 191 spigot;
#X obj 159 192 spigot;
#X obj 110 160 !- 1;
#X obj 166 130 t f f;
#X obj 71 57 inlet;
#X obj 166 57 inlet;
#X obj 166 104 > 0, f 4;
#X obj 71 234 outlet;
#X obj 117 56 inlet;
#X connect 0 0 7 0;
#X connect 1 0 7 0;
#X connect 2 0 0 1;
#X connect 3 0 2 0;
#X connect 3 1 1 1;
#X connect 4 0 0 0;
#X connect 5 0 6 0;
#X connect 6 0 3 0;
#X connect 8 0 1 0;
