#N canvas 537 202 773 698 12;
#X obj 99 153 -~;
#X obj 116 96 delwrite~ delta_sig_1 1;
#X obj 116 121 delread~ delta_sig_1 1;
#X obj 98 227 abs~;
#X obj 97 257 lop~ 0.1;
#X obj 47 287 sig~ 1;
#X obj 80 312 -~;
#X obj 98 188 *~ 200;
#X obj 97 286 clip~ 0 1;
#X obj 226 363 *~;
#X obj 137 153 inlet;
#X text 185 152 gain;
#X text 146 35 signal in;
#X obj 94 26 inlet;
#X obj 94 52 sig~;
#X obj 225 424 outlet;
#X obj 284 319 loadbang;
#X obj 283 350 metro 16;
#X obj 225 395 snapshot~;
#X connect 0 0 7 0;
#X connect 2 0 0 1;
#X connect 3 0 4 0;
#X connect 4 0 8 0;
#X connect 5 0 6 0;
#X connect 6 0 9 0;
#X connect 7 0 3 0;
#X connect 8 0 6 1;
#X connect 9 0 18 0;
#X connect 10 0 7 1;
#X connect 13 0 14 0;
#X connect 14 0 1 0;
#X connect 14 0 0 0;
#X connect 14 0 9 1;
#X connect 16 0 17 0;
#X connect 17 0 18 0;
#X connect 18 0 15 0;
